{
    "accessors": [
        {
            "bufferView": 2,
            "byteOffset": 0,
            "componentType": 5123,
            "count": 42,
            "max": [
                22
            ],
            "min": [
                0
            ],
            "name": "accessor_buffer_Navmesh_0",
            "type": "SCALAR"
        },
        {
            "bufferView": 0,
            "byteOffset": 0,
            "componentType": 5126,
            "count": 23,
            "max": [
                25.755260467529297,
                -2.9802322387695312e-08,
                6.111691474914551
            ],
            "min": [
                -7.544740676879883,
                -2.9802322387695312e-08,
                -9.188309669494629
            ],
            "name": "accessor_buffer_Navmesh_POSITION_0",
            "type": "VEC3"
        },
        {
            "bufferView": 1,
            "byteOffset": 0,
            "componentType": 5126,
            "count": 23,
            "max": [
                0.0,
                1.0,
                0.0
            ],
            "min": [
                0.0,
                0.9999999403953552,
                0.0
            ],
            "name": "accessor_buffer_Navmesh_NORMAL_0",
            "type": "VEC3"
        }
    ],
    "asset": {
        "copyright": "",
        "generator": "blendergltf v1.2.0",
        "version": "2.0"
    },
    "bufferViews": [
        {
            "buffer": 0,
            "byteLength": 276,
            "byteOffset": 0,
            "byteStride": 12,
            "name": "bufferView_buffer_Navmesh_POSITION_0",
            "target": 34962
        },
        {
            "buffer": 0,
            "byteLength": 276,
            "byteOffset": 276,
            "byteStride": 12,
            "name": "bufferView_buffer_Navmesh_NORMAL_0",
            "target": 34962
        },
        {
            "buffer": 0,
            "byteLength": 88,
            "byteOffset": 552,
            "name": "bufferView_buffer_Navmesh_0",
            "target": 34963
        }
    ],
    "buffers": [
        {
            "byteLength": 640,
            "name": "buffer_navmesh",
            "uri": "buffer_navmesh.bin"
        }
    ],
    "meshes": [
        {
            "name": "Navmesh",
            "primitives": [
                {
                    "attributes": {
                        "NORMAL": 2,
                        "POSITION": 1
                    },
                    "indices": 0,
                    "mode": 4
                }
            ]
        }
    ],
    "nodes": [
        {
            "mesh": 0,
            "name": "Navmesh",
            "rotation": [
                0.0,
                0.0,
                0.0,
                1.0
            ],
            "scale": [
                1.0,
                1.0,
                1.0
            ],
            "translation": [
                0.0,
                0.0,
                0.0
            ]
        }
    ],
    "scene": 0,
    "scenes": [
        {
            "extras": {
                "background_color": [
                    0.05087608844041824,
                    0.05087608844041824,
                    0.05087608844041824
                ],
                "frames_per_second": 24
            },
            "name": "Scene",
            "nodes": [
                0
            ]
        }
    ]
}
