{
    "accessors": [
        {
            "bufferView": 2,
            "byteOffset": 0,
            "componentType": 5123,
            "count": 30,
            "max": [
                27
            ],
            "min": [
                0
            ],
            "name": "accessor_buffer_Navmesh_0",
            "type": "SCALAR"
        },
        {
            "bufferView": 0,
            "byteOffset": 0,
            "componentType": 5126,
            "count": 28,
            "max": [
                10.975929260253906,
                3.0,
                8.511238098144531
            ],
            "min": [
                -17.824071884155273,
                0.20000000298023224,
                -3.788762092590332
            ],
            "name": "accessor_buffer_Navmesh_POSITION_0",
            "type": "VEC3"
        },
        {
            "bufferView": 1,
            "byteOffset": 0,
            "componentType": 5126,
            "count": 28,
            "max": [
                0.4017637372016907,
                1.0,
                0.010763030499219894
            ],
            "min": [
                -0.030687302350997925,
                0.9157081246376038,
                -0.009173683822154999
            ],
            "name": "accessor_buffer_Navmesh_NORMAL_0",
            "type": "VEC3"
        }
    ],
    "asset": {
        "copyright": "",
        "generator": "blendergltf v1.2.0",
        "version": "2.0"
    },
    "bufferViews": [
        {
            "buffer": 0,
            "byteLength": 336,
            "byteOffset": 0,
            "byteStride": 12,
            "name": "bufferView_buffer_Navmesh_POSITION_0",
            "target": 34962
        },
        {
            "buffer": 0,
            "byteLength": 336,
            "byteOffset": 336,
            "byteStride": 12,
            "name": "bufferView_buffer_Navmesh_NORMAL_0",
            "target": 34962
        },
        {
            "buffer": 0,
            "byteLength": 64,
            "byteOffset": 672,
            "name": "bufferView_buffer_Navmesh_0",
            "target": 34963
        }
    ],
    "buffers": [
        {
            "byteLength": 736,
            "name": "buffer_navmesh",
            "uri": "buffer_navmesh.bin"
        }
    ],
    "meshes": [
        {
            "name": "Navmesh",
            "primitives": [
                {
                    "attributes": {
                        "NORMAL": 2,
                        "POSITION": 1
                    },
                    "indices": 0,
                    "mode": 4
                }
            ]
        }
    ],
    "nodes": [
        {
            "mesh": 0,
            "name": "Navmesh",
            "rotation": [
                0.0,
                0.0,
                0.0,
                1.0
            ],
            "scale": [
                1.0,
                1.0,
                1.0
            ],
            "translation": [
                0.0,
                0.0,
                0.0
            ]
        }
    ],
    "scene": 0,
    "scenes": [
        {
            "extras": {
                "background_color": [
                    0.05087608844041824,
                    0.05087608844041824,
                    0.05087608844041824
                ],
                "frames_per_second": 24
            },
            "name": "Scene",
            "nodes": [
                0
            ]
        }
    ]
}
